<?xml version="1.0" encoding="utf-8"?>
<!-- Generator: Adobe Illustrator 20.1.0, SVG Export Plug-In . SVG Version: 6.00 Build 0)  -->
<!DOCTYPE svg PUBLIC "-//W3C//DTD SVG 1.1//EN" "http://www.w3.org/Graphics/SVG/1.1/DTD/svg11.dtd">
<svg version="1.1" id="Layer_1" xmlns="http://www.w3.org/2000/svg" xmlns:xlink="http://www.w3.org/1999/xlink" x="0px" y="0px"
	 viewBox="0 0 130 270" style="enable-background:new 0 0 130 270;" xml:space="preserve">
<style type="text/css">
	.st0{fill:none;stroke:#0000FF;stroke-width:1.5;stroke-miterlimit:10;}
</style>
<rect x="34.4" y="167.8" class="st0" width="16.2" height="57.3"/>
<rect x="80.7" y="168.6" class="st0" width="16.2" height="57.3"/>
<rect x="26.4" y="161.5" class="st0" width="32.3" height="71.5"/>
<rect x="72.6" y="161.5" class="st0" width="32.3" height="71.5"/>
<line class="st0" x1="72.6" y1="161.5" x2="80.7" y2="168.6"/>
<line class="st0" x1="104.9" y1="161.5" x2="96.8" y2="168.6"/>
<line class="st0" x1="96.8" y1="225.9" x2="104.9" y2="233"/>
<line class="st0" x1="80.7" y1="225.9" x2="72.6" y2="233"/>
<line class="st0" x1="50.6" y1="225.1" x2="58.7" y2="233"/>
<line class="st0" x1="34.4" y1="225.1" x2="26.4" y2="233"/>
<line class="st0" x1="50.6" y1="167.8" x2="58.7" y2="161.5"/>
<line class="st0" x1="34.4" y1="167.8" x2="26.4" y2="161.5"/>
<rect x="6.4" y="5.5" class="st0" width="117.4" height="259"/>
<path class="st0" d="M26,141.5h78.5V55c0,0-5.8-33.4-39-33.4s-39.1,30-39.1,30L26,141.5z"/>
</svg>
