<?xml version="1.0" encoding="utf-8"?>
<!-- Generator: Adobe Illustrator 20.1.0, SVG Export Plug-In . SVG Version: 6.00 Build 0)  -->
<!DOCTYPE svg PUBLIC "-//W3C//DTD SVG 1.1//EN" "http://www.w3.org/Graphics/SVG/1.1/DTD/svg11.dtd">
<svg version="1.1" id="Layer_1" xmlns="http://www.w3.org/2000/svg" xmlns:xlink="http://www.w3.org/1999/xlink" x="0px" y="0px"
	 viewBox="0 0 130 270" style="enable-background:new 0 0 130 270;" xml:space="preserve">
<style type="text/css">
	.st0{fill:none;stroke:#8200FF;stroke-width:1.5;stroke-miterlimit:10;}
</style>
<rect x="34.4" y="169.8" class="st0" width="16.2" height="57.3"/>
<rect x="80.7" y="170.6" class="st0" width="16.2" height="57.3"/>
<rect x="26.4" y="163.5" class="st0" width="32.3" height="71.5"/>
<rect x="72.6" y="163.5" class="st0" width="32.3" height="71.5"/>
<line class="st0" x1="72.6" y1="163.5" x2="80.7" y2="170.6"/>
<line class="st0" x1="104.9" y1="163.5" x2="96.8" y2="170.6"/>
<line class="st0" x1="96.8" y1="227.9" x2="104.9" y2="235"/>
<line class="st0" x1="80.7" y1="227.9" x2="72.6" y2="235"/>
<line class="st0" x1="50.6" y1="227.1" x2="58.7" y2="235"/>
<line class="st0" x1="34.4" y1="227.1" x2="26.4" y2="235"/>
<line class="st0" x1="50.6" y1="169.8" x2="58.7" y2="163.5"/>
<line class="st0" x1="34.4" y1="169.8" x2="26.4" y2="163.5"/>
<rect x="6.4" y="5.5" class="st0" width="117.4" height="259"/>
<rect x="34.4" y="169.8" class="st0" width="16.2" height="57.3"/>
<rect x="80.7" y="170.6" class="st0" width="16.2" height="57.3"/>
<rect x="26.4" y="163.5" class="st0" width="32.3" height="71.5"/>
<rect x="72.6" y="163.5" class="st0" width="32.3" height="71.5"/>
<line class="st0" x1="72.6" y1="163.5" x2="80.7" y2="170.6"/>
<line class="st0" x1="104.9" y1="163.5" x2="96.8" y2="170.6"/>
<line class="st0" x1="96.8" y1="227.9" x2="104.9" y2="235"/>
<line class="st0" x1="80.7" y1="227.9" x2="72.6" y2="235"/>
<line class="st0" x1="50.6" y1="227.1" x2="58.7" y2="235"/>
<line class="st0" x1="34.4" y1="227.1" x2="26.4" y2="235"/>
<line class="st0" x1="50.6" y1="169.8" x2="58.7" y2="163.5"/>
<line class="st0" x1="34.4" y1="169.8" x2="26.4" y2="163.5"/>
<rect x="33.4" y="74.1" class="st0" width="16.2" height="62.9"/>
<rect x="79.7" y="75" class="st0" width="16.2" height="62.9"/>
<rect x="25.4" y="67.1" class="st0" width="32.3" height="78.6"/>
<rect x="71.6" y="67.1" class="st0" width="32.3" height="78.6"/>
<line class="st0" x1="71.6" y1="67.1" x2="79.7" y2="75"/>
<line class="st0" x1="103.9" y1="67.1" x2="95.8" y2="75"/>
<line class="st0" x1="95.8" y1="137.9" x2="103.9" y2="145.7"/>
<line class="st0" x1="79.7" y1="137.9" x2="71.6" y2="145.7"/>
<line class="st0" x1="49.6" y1="137" x2="57.7" y2="145.7"/>
<line class="st0" x1="33.4" y1="137" x2="25.4" y2="145.7"/>
<line class="st0" x1="49.6" y1="74.1" x2="57.7" y2="67.1"/>
<line class="st0" x1="33.4" y1="74.1" x2="25.4" y2="67.1"/>
<path class="st0" d="M28.5,52.5H104l-0.1-11.9c0,0-8.4-25.4-37.7-27.2S28.5,40,28.5,40V52.5z"/>
</svg>
