<?xml version="1.0" encoding="utf-8"?>
<!-- Generator: Adobe Illustrator 20.1.0, SVG Export Plug-In . SVG Version: 6.00 Build 0)  -->
<!DOCTYPE svg PUBLIC "-//W3C//DTD SVG 1.1//EN" "http://www.w3.org/Graphics/SVG/1.1/DTD/svg11.dtd">
<svg version="1.1" id="Layer_1" xmlns="http://www.w3.org/2000/svg" xmlns:xlink="http://www.w3.org/1999/xlink" x="0px" y="0px"
	 viewBox="0 0 130 270" style="enable-background:new 0 0 130 270;" xml:space="preserve">
<style type="text/css">
	.st0{fill:none;stroke:#000000;stroke-width:1.5;stroke-miterlimit:10;}
</style>
<g>
	<rect x="26.4" y="61.6" class="st0" width="32.3" height="88.6"/>
	<rect x="34.4" y="70.8" class="st0" width="16.2" height="71.9"/>
	<rect x="34.4" y="178.8" class="st0" width="16.2" height="57.3"/>
	<rect x="80.7" y="179.6" class="st0" width="16.2" height="57.3"/>
	<rect x="80.7" y="70.8" class="st0" width="16.2" height="71.9"/>
	<rect x="26.4" y="172.5" class="st0" width="32.3" height="71.5"/>
	<rect x="26.4" y="20.8" class="st0" width="32.3" height="27.9"/>
	<rect x="72.6" y="20.8" class="st0" width="32.3" height="27.9"/>
	<rect x="72.6" y="172.5" class="st0" width="32.3" height="71.5"/>
	<rect x="72.6" y="61.6" class="st0" width="32.3" height="88.6"/>
	<line class="st0" x1="104.9" y1="61.6" x2="96.8" y2="70.8"/>
	<line class="st0" x1="72.6" y1="61.6" x2="80.7" y2="70.8"/>
	<line class="st0" x1="96.8" y1="142.7" x2="104.9" y2="150.2"/>
	<line class="st0" x1="80.7" y1="142.7" x2="72.6" y2="150.2"/>
	<line class="st0" x1="50.6" y1="142.7" x2="58.7" y2="150.2"/>
	<line class="st0" x1="34.4" y1="142.7" x2="26.4" y2="150.2"/>
	<line class="st0" x1="34.4" y1="70.8" x2="26.4" y2="61.6"/>
	<line class="st0" x1="50.6" y1="70.8" x2="58.7" y2="61.6"/>
	<line class="st0" x1="72.6" y1="172.5" x2="80.7" y2="179.6"/>
	<line class="st0" x1="104.9" y1="172.5" x2="96.8" y2="179.6"/>
	<line class="st0" x1="96.8" y1="236.9" x2="104.9" y2="244"/>
	<line class="st0" x1="80.7" y1="236.9" x2="72.6" y2="244"/>
	<line class="st0" x1="50.6" y1="236.1" x2="58.7" y2="244"/>
	<line class="st0" x1="34.4" y1="236.1" x2="26.4" y2="244"/>
	<line class="st0" x1="50.6" y1="178.8" x2="58.7" y2="172.5"/>
	<line class="st0" x1="34.4" y1="178.8" x2="26.4" y2="172.5"/>
	<rect x="6.4" y="5.5" class="st0" width="117.4" height="259"/>
</g>
</svg>
