<?xml version="1.0" encoding="utf-8"?>
<!-- Generator: Adobe Illustrator 20.1.0, SVG Export Plug-In . SVG Version: 6.00 Build 0)  -->
<!DOCTYPE svg PUBLIC "-//W3C//DTD SVG 1.1//EN" "http://www.w3.org/Graphics/SVG/1.1/DTD/svg11.dtd">
<svg version="1.1" xmlns="http://www.w3.org/2000/svg" xmlns:xlink="http://www.w3.org/1999/xlink" x="0px" y="0px"
	 viewBox="0 0 170 300" style="enable-background:new 0 0 170 300;" xml:space="preserve">
<style type="text/css">
	.st0{fill:none;stroke:#000000;stroke-width:0.75;stroke-miterlimit:10;}
	.st1{fill:none;stroke:#000000;stroke-miterlimit:10;}
</style>
<g id="Layer_1">
	<g>
		<rect x="46.4" y="76.6" class="st0" width="32.3" height="88.6"/>
		<rect x="54.4" y="85.8" class="st0" width="16.2" height="71.9"/>
		<rect x="54.4" y="193.8" class="st0" width="16.2" height="57.3"/>
		<rect x="100.7" y="194.6" class="st0" width="16.2" height="57.3"/>
		<rect x="100.7" y="85.8" class="st0" width="16.2" height="71.9"/>
		<rect x="46.4" y="187.5" class="st0" width="32.3" height="71.5"/>
		<rect x="46.4" y="35.8" class="st0" width="32.3" height="27.9"/>
		<rect x="92.6" y="35.8" class="st0" width="32.3" height="27.9"/>
		<rect x="92.6" y="187.5" class="st0" width="32.3" height="71.5"/>
		<rect x="92.6" y="76.6" class="st0" width="32.3" height="88.6"/>
		<line class="st0" x1="124.9" y1="76.6" x2="116.8" y2="85.8"/>
		<line class="st0" x1="92.6" y1="76.6" x2="100.7" y2="85.8"/>
		<line class="st0" x1="116.8" y1="157.7" x2="124.9" y2="165.2"/>
		<line class="st0" x1="100.7" y1="157.7" x2="92.6" y2="165.2"/>
		<line class="st0" x1="70.6" y1="157.7" x2="78.7" y2="165.2"/>
		<line class="st0" x1="54.4" y1="157.7" x2="46.4" y2="165.2"/>
		<line class="st0" x1="54.4" y1="85.8" x2="46.4" y2="76.6"/>
		<line class="st0" x1="70.6" y1="85.8" x2="78.7" y2="76.6"/>
		<line class="st0" x1="92.6" y1="187.5" x2="100.7" y2="194.6"/>
		<line class="st0" x1="124.9" y1="187.5" x2="116.8" y2="194.6"/>
		<line class="st0" x1="116.8" y1="251.9" x2="124.9" y2="259"/>
		<line class="st0" x1="100.7" y1="251.9" x2="92.6" y2="259"/>
		<line class="st0" x1="70.6" y1="251.1" x2="78.7" y2="259"/>
		<line class="st0" x1="54.4" y1="251.1" x2="46.4" y2="259"/>
		<line class="st0" x1="70.6" y1="193.8" x2="78.7" y2="187.5"/>
		<line class="st0" x1="54.4" y1="193.8" x2="46.4" y2="187.5"/>
		<rect x="26.4" y="20.5" class="st0" width="117.4" height="259"/>
	</g>
	<path class="st1" d="M18.6,295.2"/>
</g>
<g id="Layer_2">
</g>
</svg>
